<mxfile host="app.diagrams.net" modified="2024-01-02T09:58:58.596Z" agent="Mozilla/5.0 (Windows NT 10.0; Win64; x64) AppleWebKit/537.36 (KHTML, like Gecko) Chrome/120.0.0.0 Safari/537.36" etag="kpzlNC_iHu50AGKKxXnL" version="22.1.16" type="github">
  <diagram name="Page-1" id="JpMpXAa8-gwjv9kvgIik">
    <mxGraphModel dx="1024" dy="533" grid="1" gridSize="10" guides="1" tooltips="1" connect="1" arrows="1" fold="1" page="1" pageScale="1" pageWidth="850" pageHeight="1100" math="0" shadow="0">
      <root>
        <mxCell id="0" />
        <mxCell id="1" parent="0" />
        <mxCell id="MiHk1CSRjwjtRCgwppgx-4" style="edgeStyle=orthogonalEdgeStyle;rounded=0;orthogonalLoop=1;jettySize=auto;html=1;entryX=0;entryY=0.5;entryDx=0;entryDy=0;entryPerimeter=0;" edge="1" parent="1" source="MiHk1CSRjwjtRCgwppgx-3" target="MiHk1CSRjwjtRCgwppgx-8">
          <mxGeometry relative="1" as="geometry">
            <mxPoint x="307" y="380" as="targetPoint" />
          </mxGeometry>
        </mxCell>
        <mxCell id="MiHk1CSRjwjtRCgwppgx-33" value="order placed" style="edgeLabel;html=1;align=center;verticalAlign=middle;resizable=0;points=[];" vertex="1" connectable="0" parent="MiHk1CSRjwjtRCgwppgx-4">
          <mxGeometry x="-0.2578" y="2" relative="1" as="geometry">
            <mxPoint x="6" as="offset" />
          </mxGeometry>
        </mxCell>
        <mxCell id="MiHk1CSRjwjtRCgwppgx-3" value="" style="verticalLabelPosition=bottom;html=1;verticalAlign=top;align=center;strokeColor=none;fillColor=#00BEF2;shape=mxgraph.azure.mobile;pointerEvents=1;" vertex="1" parent="1">
          <mxGeometry x="167" y="355" width="35" height="50" as="geometry" />
        </mxCell>
        <mxCell id="MiHk1CSRjwjtRCgwppgx-5" value="Actor" style="shape=umlActor;verticalLabelPosition=bottom;verticalAlign=top;html=1;outlineConnect=0;" vertex="1" parent="1">
          <mxGeometry x="117" y="340" width="30" height="60" as="geometry" />
        </mxCell>
        <mxCell id="MiHk1CSRjwjtRCgwppgx-26" style="edgeStyle=orthogonalEdgeStyle;rounded=0;orthogonalLoop=1;jettySize=auto;html=1;" edge="1" parent="1" source="MiHk1CSRjwjtRCgwppgx-8" target="MiHk1CSRjwjtRCgwppgx-47">
          <mxGeometry relative="1" as="geometry">
            <mxPoint x="519" y="380" as="targetPoint" />
          </mxGeometry>
        </mxCell>
        <mxCell id="MiHk1CSRjwjtRCgwppgx-34" value="publish" style="edgeLabel;html=1;align=center;verticalAlign=middle;resizable=0;points=[];" vertex="1" connectable="0" parent="MiHk1CSRjwjtRCgwppgx-26">
          <mxGeometry x="-0.4175" y="1" relative="1" as="geometry">
            <mxPoint x="18" y="1" as="offset" />
          </mxGeometry>
        </mxCell>
        <mxCell id="MiHk1CSRjwjtRCgwppgx-43" style="edgeStyle=orthogonalEdgeStyle;rounded=0;orthogonalLoop=1;jettySize=auto;html=1;" edge="1" parent="1" source="MiHk1CSRjwjtRCgwppgx-8" target="MiHk1CSRjwjtRCgwppgx-39">
          <mxGeometry relative="1" as="geometry">
            <Array as="points">
              <mxPoint x="357" y="270" />
              <mxPoint x="502" y="270" />
            </Array>
          </mxGeometry>
        </mxCell>
        <mxCell id="MiHk1CSRjwjtRCgwppgx-44" value="data aggregation" style="edgeLabel;html=1;align=center;verticalAlign=middle;resizable=0;points=[];" vertex="1" connectable="0" parent="MiHk1CSRjwjtRCgwppgx-43">
          <mxGeometry x="-0.111" y="1" relative="1" as="geometry">
            <mxPoint x="36" as="offset" />
          </mxGeometry>
        </mxCell>
        <mxCell id="MiHk1CSRjwjtRCgwppgx-8" value="trading" style="html=1;whiteSpace=wrap;strokeColor=none;fillColor=#0079D6;labelPosition=center;verticalLabelPosition=middle;verticalAlign=top;align=center;fontSize=12;outlineConnect=0;spacingTop=-6;fontColor=#FFFFFF;sketch=0;shape=mxgraph.sitemap.services;" vertex="1" parent="1">
          <mxGeometry x="296" y="345" width="120" height="70" as="geometry" />
        </mxCell>
        <mxCell id="MiHk1CSRjwjtRCgwppgx-30" value="" style="edgeStyle=orthogonalEdgeStyle;rounded=0;orthogonalLoop=1;jettySize=auto;html=1;" edge="1" parent="1" source="MiHk1CSRjwjtRCgwppgx-27" target="MiHk1CSRjwjtRCgwppgx-28">
          <mxGeometry relative="1" as="geometry" />
        </mxCell>
        <mxCell id="MiHk1CSRjwjtRCgwppgx-36" value="event" style="edgeLabel;html=1;align=center;verticalAlign=middle;resizable=0;points=[];" vertex="1" connectable="0" parent="MiHk1CSRjwjtRCgwppgx-30">
          <mxGeometry x="-0.4864" relative="1" as="geometry">
            <mxPoint y="2" as="offset" />
          </mxGeometry>
        </mxCell>
        <mxCell id="MiHk1CSRjwjtRCgwppgx-27" value="aggregation" style="html=1;whiteSpace=wrap;strokeColor=none;fillColor=#0079D6;labelPosition=center;verticalLabelPosition=middle;verticalAlign=top;align=center;fontSize=12;outlineConnect=0;spacingTop=-6;fontColor=#FFFFFF;sketch=0;shape=mxgraph.sitemap.services;" vertex="1" parent="1">
          <mxGeometry x="654" y="345" width="120" height="70" as="geometry" />
        </mxCell>
        <mxCell id="MiHk1CSRjwjtRCgwppgx-28" value="engine" style="html=1;whiteSpace=wrap;strokeColor=none;fillColor=#0079D6;labelPosition=center;verticalLabelPosition=middle;verticalAlign=top;align=center;fontSize=12;outlineConnect=0;spacingTop=-6;fontColor=#FFFFFF;sketch=0;shape=mxgraph.sitemap.services;" vertex="1" parent="1">
          <mxGeometry x="654" y="456" width="120" height="70" as="geometry" />
        </mxCell>
        <mxCell id="MiHk1CSRjwjtRCgwppgx-29" style="edgeStyle=orthogonalEdgeStyle;rounded=0;orthogonalLoop=1;jettySize=auto;html=1;" edge="1" parent="1" source="MiHk1CSRjwjtRCgwppgx-27" target="MiHk1CSRjwjtRCgwppgx-47">
          <mxGeometry relative="1" as="geometry">
            <mxPoint x="545" y="380" as="targetPoint" />
          </mxGeometry>
        </mxCell>
        <mxCell id="MiHk1CSRjwjtRCgwppgx-35" value="subcribe" style="edgeLabel;html=1;align=center;verticalAlign=middle;resizable=0;points=[];" vertex="1" connectable="0" parent="MiHk1CSRjwjtRCgwppgx-29">
          <mxGeometry x="0.0368" relative="1" as="geometry">
            <mxPoint x="12" as="offset" />
          </mxGeometry>
        </mxCell>
        <mxCell id="MiHk1CSRjwjtRCgwppgx-31" style="edgeStyle=orthogonalEdgeStyle;rounded=0;orthogonalLoop=1;jettySize=auto;html=1;entryX=0.5;entryY=1;entryDx=0;entryDy=0;entryPerimeter=0;" edge="1" parent="1" source="MiHk1CSRjwjtRCgwppgx-28" target="MiHk1CSRjwjtRCgwppgx-3">
          <mxGeometry relative="1" as="geometry" />
        </mxCell>
        <mxCell id="MiHk1CSRjwjtRCgwppgx-32" value="socket/inbox/email" style="edgeLabel;html=1;align=center;verticalAlign=middle;resizable=0;points=[];" vertex="1" connectable="0" parent="MiHk1CSRjwjtRCgwppgx-31">
          <mxGeometry x="0.2138" relative="1" as="geometry">
            <mxPoint as="offset" />
          </mxGeometry>
        </mxCell>
        <mxCell id="MiHk1CSRjwjtRCgwppgx-39" value="" style="verticalLabelPosition=bottom;aspect=fixed;html=1;shape=mxgraph.salesforce.customer_360;" vertex="1" parent="1">
          <mxGeometry x="472" y="190" width="60" height="54.6" as="geometry" />
        </mxCell>
        <mxCell id="MiHk1CSRjwjtRCgwppgx-40" style="edgeStyle=orthogonalEdgeStyle;rounded=0;orthogonalLoop=1;jettySize=auto;html=1;" edge="1" parent="1" source="MiHk1CSRjwjtRCgwppgx-3" target="MiHk1CSRjwjtRCgwppgx-53">
          <mxGeometry relative="1" as="geometry">
            <Array as="points">
              <mxPoint x="185" y="215" />
            </Array>
          </mxGeometry>
        </mxCell>
        <mxCell id="MiHk1CSRjwjtRCgwppgx-41" value="activity tracking" style="edgeLabel;html=1;align=center;verticalAlign=middle;resizable=0;points=[];" vertex="1" connectable="0" parent="MiHk1CSRjwjtRCgwppgx-40">
          <mxGeometry x="0.0338" y="2" relative="1" as="geometry">
            <mxPoint x="56" as="offset" />
          </mxGeometry>
        </mxCell>
        <mxCell id="MiHk1CSRjwjtRCgwppgx-45" style="edgeStyle=orthogonalEdgeStyle;rounded=0;orthogonalLoop=1;jettySize=auto;html=1;exitX=0.852;exitY=0.397;exitDx=0;exitDy=0;exitPerimeter=0;entryX=0.5;entryY=0;entryDx=0;entryDy=0;entryPerimeter=0;" edge="1" parent="1" source="MiHk1CSRjwjtRCgwppgx-39" target="MiHk1CSRjwjtRCgwppgx-27">
          <mxGeometry relative="1" as="geometry">
            <Array as="points">
              <mxPoint x="523" y="215" />
              <mxPoint x="714" y="215" />
            </Array>
          </mxGeometry>
        </mxCell>
        <mxCell id="MiHk1CSRjwjtRCgwppgx-51" value="proactively acquire" style="edgeLabel;html=1;align=center;verticalAlign=middle;resizable=0;points=[];" vertex="1" connectable="0" parent="MiHk1CSRjwjtRCgwppgx-45">
          <mxGeometry x="-0.3904" relative="1" as="geometry">
            <mxPoint as="offset" />
          </mxGeometry>
        </mxCell>
        <mxCell id="MiHk1CSRjwjtRCgwppgx-46" value="C360" style="text;html=1;align=center;verticalAlign=middle;resizable=0;points=[];autosize=1;strokeColor=none;fillColor=none;" vertex="1" parent="1">
          <mxGeometry x="477" y="160" width="50" height="30" as="geometry" />
        </mxCell>
        <mxCell id="MiHk1CSRjwjtRCgwppgx-47" value="Message queue" style="sketch=0;outlineConnect=0;fontColor=#232F3E;gradientColor=none;strokeColor=#232F3E;fillColor=#ffffff;dashed=0;verticalLabelPosition=bottom;verticalAlign=top;align=center;html=1;fontSize=12;fontStyle=0;aspect=fixed;shape=mxgraph.aws4.resourceIcon;resIcon=mxgraph.aws4.queue;" vertex="1" parent="1">
          <mxGeometry x="497" y="350" width="60" height="60" as="geometry" />
        </mxCell>
        <mxCell id="MiHk1CSRjwjtRCgwppgx-50" style="edgeStyle=orthogonalEdgeStyle;rounded=0;orthogonalLoop=1;jettySize=auto;html=1;exitX=0;exitY=0.25;exitDx=0;exitDy=0;exitPerimeter=0;entryX=0.5;entryY=1;entryDx=0;entryDy=0;entryPerimeter=0;" edge="1" parent="1" source="MiHk1CSRjwjtRCgwppgx-28" target="MiHk1CSRjwjtRCgwppgx-8">
          <mxGeometry relative="1" as="geometry" />
        </mxCell>
        <mxCell id="MiHk1CSRjwjtRCgwppgx-59" value="apply targeted campaign" style="edgeLabel;html=1;align=center;verticalAlign=middle;resizable=0;points=[];" vertex="1" connectable="0" parent="MiHk1CSRjwjtRCgwppgx-50">
          <mxGeometry x="-0.0607" y="-1" relative="1" as="geometry">
            <mxPoint as="offset" />
          </mxGeometry>
        </mxCell>
        <mxCell id="MiHk1CSRjwjtRCgwppgx-56" style="edgeStyle=orthogonalEdgeStyle;rounded=0;orthogonalLoop=1;jettySize=auto;html=1;" edge="1" parent="1" source="MiHk1CSRjwjtRCgwppgx-53" target="MiHk1CSRjwjtRCgwppgx-39">
          <mxGeometry relative="1" as="geometry" />
        </mxCell>
        <mxCell id="MiHk1CSRjwjtRCgwppgx-53" value="M" style="shape=ellipse;fillColor=#FF5630;strokeColor=none;fontColor=#ffffff;align=center;verticalAlign=middle;whiteSpace=wrap;fontSize=10;fontStyle=1;html=1;sketch=0;" vertex="1" parent="1">
          <mxGeometry x="328" y="188.6" width="56" height="56" as="geometry" />
        </mxCell>
        <mxCell id="MiHk1CSRjwjtRCgwppgx-57" style="edgeStyle=orthogonalEdgeStyle;rounded=0;orthogonalLoop=1;jettySize=auto;html=1;entryX=1;entryY=0.5;entryDx=0;entryDy=0;entryPerimeter=0;" edge="1" parent="1" source="MiHk1CSRjwjtRCgwppgx-53" target="MiHk1CSRjwjtRCgwppgx-28">
          <mxGeometry relative="1" as="geometry">
            <Array as="points">
              <mxPoint x="356" y="130" />
              <mxPoint x="794" y="130" />
              <mxPoint x="794" y="491" />
            </Array>
          </mxGeometry>
        </mxCell>
        <mxCell id="MiHk1CSRjwjtRCgwppgx-58" value="feature access detected" style="edgeLabel;html=1;align=center;verticalAlign=middle;resizable=0;points=[];" vertex="1" connectable="0" parent="MiHk1CSRjwjtRCgwppgx-57">
          <mxGeometry x="-0.4113" y="1" relative="1" as="geometry">
            <mxPoint as="offset" />
          </mxGeometry>
        </mxCell>
      </root>
    </mxGraphModel>
  </diagram>
</mxfile>
